<?xml version="1.0" standalone="no"?>
<!DOCTYPE svg PUBLIC "-//W3C//DTD SVG 20010904//EN"
 "http://www.w3.org/TR/2001/REC-SVG-20010904/DTD/svg10.dtd">
<svg version="1.0" xmlns="http://www.w3.org/2000/svg"
 width="1000.000000pt" height="1000.000000pt" viewBox="0 0 1000.000000 1000.000000"
 preserveAspectRatio="xMidYMid meet">
<metadata>
Created by potrace 1.11, written by Peter Selinger 2001-2013
</metadata>
<g transform="translate(0.000000,1000.000000) scale(0.100000,-0.100000)"
fill="#000000" stroke="none">
<path d="M554 9658 c-3 -5 -12 -7 -20 -4 -8 3 -3 -11 12 -37 46 -75 128 -192
136 -195 4 -2 8 -9 8 -15 0 -7 11 -24 25 -39 14 -15 25 -31 25 -35 0 -5 8 -16
18 -24 9 -9 24 -26 32 -39 14 -21 105 -143 122 -165 5 -5 29 -37 54 -70 25
-33 50 -67 57 -75 7 -8 53 -67 102 -130 49 -63 95 -122 102 -130 7 -8 60 -76
119 -150 58 -74 119 -151 134 -170 16 -19 55 -69 87 -110 60 -78 71 -93 88
-113 6 -7 62 -77 125 -157 63 -80 121 -151 128 -158 7 -8 25 -30 40 -50 15
-21 35 -46 45 -56 19 -21 18 -20 22 -86 4 -64 14 -128 26 -175 6 -22 13 -50
15 -62 2 -12 9 -34 14 -48 5 -14 7 -25 4 -25 -4 0 -159 125 -174 140 -6 6 -61
52 -125 105 -27 22 -87 72 -133 112 -88 73 -104 79 -140 47 -26 -22 -17 -47
38 -105 62 -65 238 -270 372 -434 86 -106 109 -133 126 -151 6 -7 12 -15 12
-18 0 -3 15 -21 33 -40 27 -29 66 -76 144 -176 6 -8 53 -69 103 -135 51 -66
107 -134 125 -152 30 -30 245 -324 254 -347 2 -6 7 -13 10 -16 8 -7 48 -60
106 -144 51 -73 66 -93 103 -134 12 -14 22 -29 22 -33 0 -4 10 -18 23 -31 12
-13 34 -41 48 -63 26 -41 26 -42 3 -115 -3 -8 -5 -16 -5 -17 0 -2 -5 -17 -10
-35 -5 -18 -14 -62 -20 -98 -5 -36 -12 -77 -14 -91 -12 -71 -18 -156 -18 -274
1 -123 10 -271 18 -284 2 -4 6 -33 9 -66 4 -33 9 -68 12 -77 3 -9 7 -25 9 -35
10 -50 47 -178 57 -197 6 -12 11 -22 10 -23 -3 -5 2 -20 16 -56 7 -16 12 -31
12 -34 0 -15 96 -214 131 -271 21 -35 39 -66 39 -68 0 -5 55 -84 112 -162 21
-29 59 -75 84 -103 25 -28 44 -55 42 -59 -3 -8 -155 -170 -328 -350 -36 -37
-130 -136 -210 -220 -80 -84 -176 -185 -215 -225 -38 -40 -133 -139 -210 -220
-77 -81 -194 -204 -260 -273 -142 -147 -161 -167 -370 -387 -88 -93 -180 -190
-205 -215 -25 -25 -120 -125 -211 -221 -92 -95 -197 -205 -233 -244 -37 -38
-129 -135 -204 -214 -75 -79 -159 -167 -187 -196 -70 -72 -100 -109 -97 -118
1 -4 -2 -7 -6 -7 -5 0 -8 -10 -6 -23 1 -12 3 -30 3 -41 1 -12 6 -16 15 -13 11
4 13 1 9 -10 -5 -13 -2 -15 11 -10 10 4 15 3 11 -4 -5 -6 8 -8 36 -5 48 6 13
-27 387 365 87 90 180 187 207 216 28 29 120 125 205 215 85 90 175 184 200
210 25 26 124 129 220 230 96 101 195 205 220 230 25 26 119 125 210 221 91
95 185 194 210 219 25 26 115 120 200 209 178 188 212 223 412 432 81 85 185
194 231 242 l85 89 51 -46 c28 -25 60 -50 71 -56 33 -18 51 6 -205 -265 -77
-81 -160 -169 -185 -195 -25 -26 -103 -109 -175 -185 -71 -76 -152 -162 -180
-191 -51 -54 -144 -152 -248 -262 -50 -53 -57 -65 -46 -78 7 -8 8 -14 3 -12
-9 3 -14 -4 -14 -23 0 -5 5 -7 10 -4 6 4 10 3 9 -2 -4 -25 3 -35 21 -30 11 3
18 1 15 -3 -3 -5 4 -8 15 -7 11 1 20 5 20 10 0 4 4 6 8 3 7 -4 49 38 241 243
52 55 279 295 341 360 69 72 293 309 355 376 26 28 71 76 100 107 l54 56 68
-42 c71 -43 252 -134 313 -155 19 -7 44 -17 55 -21 43 -17 113 -41 131 -44 32
-7 198 -47 214 -52 10 -4 12 -2 5 5 -12 11 -198 87 -204 82 -2 -1 -7 1 -10 6
-3 4 -63 36 -132 70 -102 51 -205 116 -239 153 -3 3 -23 18 -45 35 -22 16 -42
31 -45 34 -3 4 -25 22 -50 42 -59 48 -150 139 -150 151 0 5 -5 6 -10 3 -6 -3
-10 1 -10 9 0 9 -6 15 -12 13 -7 -1 -12 4 -11 11 2 6 -4 12 -13 12 -10 0 -14
6 -11 14 4 11 1 13 -10 9 -9 -4 -14 -2 -10 3 3 6 -5 19 -19 29 -19 14 -22 20
-12 27 10 6 9 8 -4 8 -19 0 -41 33 -30 44 3 4 -1 4 -11 0 -12 -4 -17 -1 -17
10 0 9 -4 16 -10 16 -5 0 -10 7 -10 15 0 8 -4 15 -10 15 -5 0 -10 5 -10 11 0
6 -7 17 -15 26 -8 8 -12 19 -9 25 4 6 3 8 -3 5 -5 -4 -16 6 -24 21 -8 15 -18
30 -22 33 -4 3 -9 15 -10 27 0 11 -5 18 -9 16 -7 -5 -13 19 -9 39 1 5 -3 6 -9
2 -5 -3 -10 1 -10 9 0 9 -5 16 -11 16 -5 0 -7 5 -4 10 3 6 1 10 -4 10 -6 0
-10 3 -9 8 1 4 -3 17 -10 30 -7 12 -10 26 -8 31 3 5 -1 12 -10 15 -8 3 -12 11
-9 17 4 5 -1 19 -10 29 -10 11 -15 26 -11 35 4 11 2 14 -6 9 -8 -5 -9 -2 -5
10 5 11 3 15 -5 10 -7 -5 -9 0 -6 14 4 12 2 20 -3 16 -8 -4 -14 25 -10 48 0 5
-3 8 -8 8 -5 0 -12 19 -16 43 -4 23 -10 49 -12 57 -7 25 -14 64 -16 83 -1 9
-4 17 -8 17 -3 0 -5 10 -5 23 1 12 -2 28 -7 35 -6 8 -5 12 4 12 9 0 10 3 4 8
-13 9 -15 19 -20 105 -2 40 -5 72 -6 72 -6 0 -3 83 4 93 5 6 6 12 1 12 -5 0
-9 13 -10 30 -1 19 3 27 10 23 6 -4 6 0 -1 9 -7 8 -10 18 -7 21 3 3 8 30 9 60
2 29 7 74 10 98 4 24 9 55 10 69 7 64 29 131 38 119 23 -28 122 -145 126 -149
3 -3 33 -36 66 -75 33 -38 74 -83 90 -101 17 -17 49 -53 73 -80 101 -114 263
-283 507 -528 270 -270 420 -414 634 -606 40 -36 87 -78 105 -95 17 -16 67
-59 110 -95 43 -36 91 -77 106 -92 16 -16 33 -28 39 -28 6 0 11 -4 11 -9 0 -8
164 -146 217 -182 13 -8 20 -19 16 -22 -3 -4 1 -7 10 -7 10 0 17 -4 17 -10 0
-5 4 -10 10 -10 5 0 22 -11 37 -25 23 -21 142 -114 263 -206 119 -91 201 -149
209 -149 5 0 11 -3 13 -7 5 -13 86 -73 97 -73 5 0 11 -4 13 -8 2 -5 37 -31 78
-58 41 -27 77 -51 80 -54 11 -13 312 -200 321 -200 5 0 9 -4 9 -9 0 -5 12 -14
28 -20 30 -12 85 -43 148 -83 22 -14 72 -58 110 -96 139 -141 533 -549 585
-607 30 -32 65 -71 79 -86 14 -15 40 -46 59 -69 18 -22 36 -38 39 -35 3 2 10
0 17 -5 17 -14 55 16 55 43 0 12 -65 120 -145 240 -80 120 -145 222 -145 226
0 4 -9 16 -20 26 -11 10 -17 22 -14 26 3 5 1 9 -5 9 -8 0 -41 54 -41 67 0 2 8
-1 19 -6 24 -13 193 -57 249 -65 24 -3 49 -9 57 -13 7 -5 243 -235 523 -513
579 -574 756 -746 932 -910 68 -63 144 -134 169 -157 25 -24 49 -43 53 -43 4
0 20 -13 35 -28 48 -48 87 -71 99 -58 18 20 9 54 -26 99 -19 23 -38 43 -42 45
-4 2 -8 10 -8 18 0 7 -9 19 -20 26 -11 7 -20 16 -20 20 0 5 -52 72 -116 150
-64 79 -130 161 -147 183 -18 22 -44 52 -59 68 -15 15 -27 30 -27 33 1 6 -93
123 -126 157 -12 12 -32 39 -46 59 -14 21 -29 35 -32 31 -4 -3 -7 0 -7 8 0 8
-16 32 -35 54 -19 22 -39 45 -43 50 -28 36 -116 141 -122 145 -4 3 -11 12 -16
21 -5 9 -28 38 -51 65 -23 27 -78 94 -123 149 -144 175 -164 199 -191 227 -15
15 -24 29 -22 32 3 2 -4 11 -16 18 -12 7 -21 17 -21 23 -1 5 -23 35 -50 65
l-49 54 34 33 c18 18 36 42 40 53 3 11 10 20 14 20 4 0 15 29 26 64 l20 64 85
-87 c47 -48 135 -140 195 -204 110 -117 145 -139 145 -94 0 13 -3 27 -7 31 -4
3 -8 16 -10 27 -2 11 -17 40 -34 65 -16 24 -27 44 -24 44 4 0 -2 12 -13 28
-11 15 -35 57 -55 94 -48 89 -61 112 -67 118 -6 6 -22 34 -55 95 -30 57 -48
88 -61 105 -6 8 -25 40 -41 70 -17 30 -55 98 -85 150 -30 52 -59 106 -63 120
-41 131 -365 733 -444 825 -9 11 -23 31 -30 45 -7 14 -37 59 -67 100 l-55 75
7 -50 c3 -27 9 -59 11 -70 3 -11 9 -40 13 -65 5 -25 14 -72 22 -105 22 -96 13
-270 -21 -395 -19 -72 -73 -224 -82 -235 -5 -5 -9 -15 -9 -22 0 -21 -64 -116
-104 -156 -82 -79 -244 -135 -402 -138 -67 -2 -94 3 -174 31 -52 18 -100 37
-106 42 -7 5 -22 11 -34 13 -29 6 -280 129 -360 177 -56 34 -234 158 -280 195
-23 19 -85 66 -115 87 -14 11 -35 27 -45 35 -10 9 -31 25 -46 36 -44 32 -89
69 -92 78 -2 4 -10 7 -17 7 -7 0 -15 4 -17 8 -1 4 -66 59 -143 122 -77 63
-145 119 -151 125 -6 5 -32 28 -58 50 -27 22 -58 49 -70 60 -13 11 -47 41 -77
67 -78 67 -87 75 -184 163 -49 44 -100 91 -114 103 -181 164 -584 562 -787
778 -184 194 -210 222 -257 277 -23 27 -61 69 -84 93 -23 25 -57 63 -75 86
-18 22 -44 53 -58 67 -14 15 -42 48 -63 74 -21 25 -43 52 -50 59 -7 7 -26 30
-44 52 -40 49 -40 51 52 241 27 55 56 111 65 125 78 118 96 145 105 154 5 6
22 28 38 48 41 55 183 198 256 258 186 151 417 269 646 329 94 24 204 48 225
49 8 0 27 3 42 6 75 17 269 25 286 13 6 -5 12 -6 12 -1 0 5 17 8 37 7 74 -5
148 -12 181 -17 69 -12 88 -16 112 -22 14 -3 33 -6 43 -6 9 1 17 -4 17 -9 0
-6 5 -7 10 -4 6 3 25 2 43 -4 128 -38 175 -53 192 -61 11 -5 54 -25 96 -44 91
-41 243 -125 247 -137 2 -5 8 -9 14 -9 6 0 22 -10 37 -22 16 -13 45 -36 67
-53 95 -73 294 -270 294 -290 0 -3 13 -19 30 -37 28 -29 34 -41 31 -61 -1 -5
3 -6 8 -2 13 7 30 -25 24 -45 -4 -12 -3 -12 5 -1 7 10 11 10 17 1 4 -6 4 -14
1 -17 -3 -4 3 -13 15 -21 11 -8 18 -20 15 -29 -3 -8 -2 -12 2 -9 12 7 64 -93
56 -106 -4 -6 -3 -8 3 -5 13 8 26 -20 16 -35 -3 -6 -2 -8 4 -5 5 3 24 -24 41
-61 45 -99 62 -142 54 -142 -4 0 -2 -4 4 -8 10 -7 62 -153 70 -199 2 -12 9
-34 14 -48 13 -33 13 -38 -1 -29 -6 3 -4 -5 5 -19 9 -13 16 -29 15 -33 -1 -5
1 -25 4 -44 4 -19 8 -46 10 -60 1 -14 6 -31 11 -39 7 -10 6 -12 -4 -6 -10 6
-11 4 -4 -6 14 -24 16 -51 2 -43 -10 6 -10 5 -1 -7 6 -8 13 -51 15 -96 3 -68
1 -83 -12 -86 -13 -4 -13 -5 0 -6 12 -1 14 -13 11 -58 -1 -32 -8 -61 -15 -65
-8 -6 -8 -8 1 -8 6 0 10 -8 8 -17 -2 -10 -4 -18 -5 -18 -1 0 -3 -22 -6 -49 -2
-27 -8 -53 -15 -56 -8 -6 -8 -9 2 -12 8 -3 10 -9 4 -19 -5 -8 -8 -22 -7 -31 2
-10 0 -18 -5 -18 -4 0 -9 -15 -9 -33 -3 -50 -41 -224 -67 -305 -14 -40 -21
-75 -16 -77 17 -11 160 326 185 435 10 47 13 57 24 100 7 25 14 61 16 80 2 19
6 45 9 58 27 109 27 472 1 637 -3 17 -7 44 -10 60 -26 158 -99 378 -182 547
-47 95 -129 234 -156 265 -42 49 -41 55 30 130 103 109 328 347 422 447 47 49
103 109 125 132 22 23 94 99 160 170 66 70 131 139 145 154 57 60 219 237 241
264 13 16 31 36 39 45 41 43 53 63 56 91 2 19 0 29 -6 25 -6 -3 -10 0 -10 7 0
8 -13 15 -31 16 -29 2 -48 -14 -208 -176 -173 -176 -208 -212 -481 -502 -74
-79 -151 -160 -170 -180 -19 -20 -90 -95 -157 -166 -245 -259 -270 -284 -280
-284 -5 0 -34 27 -63 61 l-53 61 24 23 c13 12 98 100 189 196 91 95 183 192
205 214 22 23 110 115 195 205 85 89 178 186 205 215 28 29 115 121 195 204
80 84 181 190 225 236 44 46 145 152 225 235 80 84 170 178 200 210 85 89 330
346 380 399 41 44 162 176 218 239 12 14 22 28 22 31 0 3 14 22 30 41 36 42
38 73 7 104 -22 21 -27 22 -58 11 -52 -18 -178 -138 -519 -495 -91 -95 -201
-210 -245 -256 -44 -46 -145 -152 -225 -235 -80 -84 -163 -171 -185 -194 -22
-23 -107 -113 -190 -200 -82 -86 -184 -192 -225 -235 -88 -92 -345 -361 -420
-440 -233 -247 -376 -390 -385 -386 -5 2 -49 33 -97 69 -47 36 -119 85 -160
108 -40 24 -74 47 -76 51 -2 5 -8 8 -13 8 -4 0 -41 16 -81 36 -40 19 -102 46
-138 60 -36 14 -74 30 -85 34 -17 8 -137 44 -185 55 -8 2 -15 4 -15 5 0 1 -9
3 -20 5 -11 2 -45 8 -75 14 -30 5 -71 12 -90 15 -19 3 -46 8 -60 12 -43 10
-392 13 -455 4 -33 -5 -82 -12 -110 -15 -27 -4 -88 -15 -135 -26 -47 -11 -94
-22 -105 -23 -85 -14 -383 -139 -497 -209 -20 -12 -58 -35 -85 -51 -26 -16
-53 -34 -59 -40 -6 -6 -22 -18 -34 -26 -12 -8 -30 -22 -40 -30 -11 -8 -34 -26
-51 -40 -66 -50 -160 -140 -239 -230 -36 -40 -71 -78 -77 -86 -7 -7 -13 -15
-13 -19 0 -4 -17 -27 -39 -53 -46 -57 -139 -207 -179 -290 -26 -56 -42 -66
-53 -36 -2 6 -14 24 -27 40 -86 108 -135 184 -177 270 -54 111 -95 211 -95
231 0 7 -9 32 -19 56 -26 57 -37 95 -61 217 -24 115 -35 346 -19 366 7 8 6 14
-1 19 -6 3 -7 12 -3 18 4 7 9 22 11 35 1 12 8 35 14 50 6 15 11 30 10 35 -1 4
3 7 9 7 5 0 8 4 4 9 -3 5 1 16 9 24 8 8 12 17 9 21 -4 3 -1 6 5 6 7 0 12 6 12
14 0 26 86 105 161 149 99 58 125 61 349 46 8 0 71 -18 140 -39 69 -21 145
-44 170 -50 45 -12 122 -36 150 -47 8 -3 20 -7 26 -8 6 -2 27 -9 45 -18 88
-37 89 -38 89 -19 -1 9 -22 30 -48 46 -26 16 -69 43 -97 61 -27 17 -66 40 -85
51 -19 10 -37 21 -40 24 -8 8 -89 60 -94 60 -2 0 -44 23 -93 51 -91 53 -332
175 -393 199 -108 42 -188 87 -293 164 -66 48 -124 91 -130 97 -7 5 -52 39
-102 75 -49 36 -97 71 -105 77 -8 7 -62 46 -120 87 -58 41 -106 78 -108 82 -2
5 -9 8 -16 8 -7 0 -21 9 -31 20 -10 11 -23 20 -29 20 -6 0 -22 9 -36 19 -22
18 -25 18 -38 3 -7 -10 -10 -11 -6 -3 5 9 3 12 -4 7 -20 -12 -14 -25 46 -95
31 -37 66 -79 77 -92 11 -13 59 -71 108 -129 49 -58 96 -114 104 -125 9 -11
22 -27 29 -35 11 -13 7 -15 -29 -16 -23 -1 -55 -5 -72 -9 -16 -4 -34 -8 -40
-9 -23 -4 -81 -30 -97 -44 -16 -13 -25 -7 -105 76 -713 735 -953 980 -1265
1292 -215 214 -260 252 -274 228z"/>
</g>
</svg>
